# xmcd
#
# Track frame offsets:
#	150
#	17116
#	31385
#	45740
#	60851
#	78402
#	92866
#	108612
#	129404
#	147680
#	165052
#	185607
#	203340
#	220667
#	239341
#
# Disc length: 3434 seconds
#
# Revision: 0
# Processed by: cddbd v1.5.2PL0 Copyright (c) Steve Scherf et al.
# Submitted via: dBpowerAMP V4.0
#
DISCID=c40d680f
DTITLE=Various Artist - CB60358
DYEAR=2006
DGENRE=Karaoke
TTITLE0=Currington, Billy - Good Directions
TTITLE1=Strait, George - It Just Comes Natural
TTITLE2=Wilson, Gretchen - Midnight Oil
TTITLE3=Paisley, Brad - In Times Like These
TTITLE4=Shelton, Blake - Don't Make Me
TTITLE5=Peck, Danielle - Isn't That Everything
TTITLE6=Wayne, Jimmy - That's All I Ever Need
TTITLE7=Carroll, Jason Michael - Alyssa Lies
TTITLE8=Wilson, Gretchen and John Rich - Come To Bed
TTITLE9=Gracin, Josh - I Keep Coming Back
TTITLE10=Worley, Darryl - I Just Came Back (From A War)
TTITLE11=Pickler, Kellie - Red High Heels
TTITLE12=Walker, Clay - 'Fore She Was Mama
TTITLE13=Owen, Jake - Startin' With Me
TTITLE14=Haun, Lindsey - Broken
EXTD=
EXTT0=
EXTT1=
EXTT2=
EXTT3=
EXTT4=
EXTT5=
EXTT6=
EXTT7=
EXTT8=
EXTT9=
EXTT10=
EXTT11=
EXTT12=
EXTT13=
EXTT14=
PLAYORDER=
